g Mesh1 Model

v -0.225 0 -0.389711
vt 8.85827 15.343
vn 0 -1 -0
v 0.225 0 -0.389711
vt -8.85827 15.343
v 0.45 0 -0
vt -17.7165 0
v 0.225 0 0.389711
vt -8.85827 -15.343
v -0.225 0 0.389711
vt 8.85827 -15.343
v -0.45 0 -5.51091e-017
vt 17.7165 2.16965e-015
f 1/1/1 2/2/1 3/3/1 4/4/1 5/5/1 6/6/1 

vt -8.85827 0
vn 1.00265e-016 0 -1
vt 8.85827 0
v -0.225 0.25 -0.389711
vt 8.85827 9.84252
v 0.225 0.25 -0.389711
vt -8.85827 9.84252
f 2/7/2 1/8/2 7/9/2 8/10/2 

vn -0.866025 0 -0.5
v -0.45 0.25 -5.51091e-017
f 1/7/3 6/8/3 9/9/3 7/10/3 

vn -0.866025 0 0.5
v -0.225 0.25 0.389711
f 6/7/4 5/8/4 10/9/4 9/10/4 

vn -7.01858e-016 0 1
v 0.225 0.25 0.389711
f 5/7/5 4/8/5 11/9/5 10/10/5 

vn 0.866025 0 0.5
v 0.45 0.25 -0
f 4/7/6 3/8/6 12/9/6 11/10/6 

vn 0.866025 0 -0.5
f 3/7/7 2/8/7 8/9/7 12/10/7 

vn 0 1 -0
vt -17.7165 2.16965e-015
vt 17.7165 0
f 8/1/8 7/2/8 9/11/8 10/4/8 11/5/8 12/12/8 

