# Blender v2.78 (sub 0) OBJ File: ''
# www.blender.org
o Mesh1_Model.001
v -0.000000 0.250000 -0.176777
v -0.104603 0.250000 0.072174
v -0.104603 0.250000 -0.072174
v -0.067707 0.250000 0.109070
v 0.067707 0.250000 0.109070
v 0.104603 0.250000 -0.072174
v -0.000000 0.640000 -0.176777
v 0.104603 0.640000 -0.072174
v 0.079037 0.640000 -0.061584
v -0.000000 0.640000 -0.140621
v -0.079037 0.640000 -0.061584
v -0.104603 0.640000 -0.072174
v -0.079037 0.640000 0.061584
v -0.104603 0.640000 0.072174
v -0.067707 0.640000 0.109070
v 0.067707 0.640000 0.109070
v 0.104603 0.640000 0.072174
v 0.104603 0.250000 0.072174
v 0.079037 0.640000 0.061584
v 0.057117 0.640000 0.083504
v -0.057117 0.640000 0.083504
v -0.079037 0.610000 0.061584
v -0.057117 0.610000 0.083504
v 0.057117 0.610000 0.083504
v 0.079037 0.610000 0.061584
v 0.079037 0.610000 -0.061584
v -0.000000 0.610000 -0.140621
v -0.079037 0.610000 -0.061584
vt 0.0000 6.9597
vt 4.1182 -2.8415
vt 4.1182 2.8415
vt 2.6656 -4.2941
vt -2.6656 -4.2941
vt -4.1182 2.8415
vt 4.9213 25.1969
vt -0.9028 9.8425
vt 4.9213 9.8425
vt -0.9028 25.1969
vt -0.0000 6.9597
vt 3.1117 2.4246
vt 4.1182 2.8415
vt -0.0000 5.5363
vt -3.1117 2.4246
vt -4.1182 2.8415
vt -3.1117 -2.4246
vt -4.1182 -2.8415
vt -2.6656 -4.2941
vt -0.9028 25.1969
vt 1.1515 9.8425
vt 1.1515 25.1969
vt -0.9028 9.8425
vt -2.8415 25.1969
vt 2.8415 9.8425
vt 2.8415 25.1969
vt -2.8415 9.8425
vt -4.9213 25.1969
vt 0.9028 9.8425
vt 0.9028 25.1969
vt -4.9213 9.8425
vt -2.6656 9.8425
vt 2.6656 25.1969
vt -2.6656 25.1969
vt 2.6656 9.8425
vt -1.1515 9.8425
vt 0.9028 25.1969
vt -1.1515 25.1969
vt 0.9028 9.8425
vt -4.1182 -2.8415
vt 2.8415 9.8425
vt -2.8415 25.1969
vt -2.8415 9.8425
vt 2.8415 25.1969
vt 4.1182 -2.8415
vt 3.1117 -2.4246
vt 2.6656 -4.2941
vt 2.2487 -3.2876
vt -2.2487 -3.2876
vt -0.7346 25.1969
vt 0.4859 24.0157
vt 0.4859 25.1969
vt -0.7346 24.0157
vt 2.2487 25.1969
vt -2.2487 24.0157
vt 2.2487 24.0157
vt -2.2487 25.1969
vt -0.4859 25.1969
vt 0.7346 24.0157
vt 0.7346 25.1969
vt -0.4859 24.0157
vt -2.4246 25.1969
vt 2.4246 24.0157
vt 2.4246 25.1969
vt -2.4246 24.0157
vt 0.4859 25.1969
vt -3.9147 24.0157
vt 0.4859 24.0157
vt -3.9147 25.1969
vt -0.4859 25.1969
vt 3.9147 24.0157
vt 3.9147 25.1969
vt -0.4859 24.0157
vt -2.4246 25.1969
vt 2.4246 24.0157
vt 2.4246 25.1969
vt -2.4246 24.0157
vt -2.2487 -3.2876
vt -3.1117 2.4246
vt -3.1117 -2.4246
vt -0.0000 5.5363
vt 2.2487 -3.2876
vt 3.1117 2.4246
vt 3.1117 -2.4246
vn -0.0000 -1.0000 -0.0000
vn 0.7071 0.0000 -0.7071
vn 0.0000 1.0000 -0.0000
vn -0.7071 -0.0000 0.7071
vn -1.0000 -0.0000 0.0000
vn -0.7071 0.0000 -0.7071
vn 0.0000 -0.0000 1.0000
vn 0.7071 -0.0000 0.7071
vn 1.0000 -0.0000 0.0000
vn 0.0000 0.0000 -1.0000
s 1
f 1/1/1 2/2/1 3/3/1
f 2/2/1 1/1/1 4/4/1
f 4/4/1 1/1/1 5/5/1
f 5/5/1 1/1/1 6/6/1
f 7/7/2 6/8/2 1/9/2
f 6/8/2 7/7/2 8/10/2
f 7/11/3 9/12/3 8/13/3
f 7/11/3 10/14/3 9/12/3
f 7/11/3 11/15/3 10/14/3
f 12/16/3 11/15/3 7/11/3
f 11/15/3 12/16/3 13/17/3
f 14/18/3 13/17/3 12/16/3
f 13/17/3 14/18/3 15/19/3
f 14/20/4 4/21/4 15/22/4
f 4/21/4 14/20/4 2/23/4
f 12/24/5 2/25/5 14/26/5
f 2/25/5 12/24/5 3/27/5
f 7/28/6 3/29/6 12/30/6
f 3/29/6 7/28/6 1/31/6
f 4/32/7 16/33/7 15/34/7
f 16/33/7 4/32/7 5/35/7
f 5/36/8 17/37/8 16/38/8
f 17/37/8 5/36/8 18/39/8
f 5/5/1 6/6/1 18/40/1
f 6/41/9 17/42/9 18/43/9
f 17/42/9 6/41/9 8/44/9
f 8/13/3 9/12/3 17/45/3
f 19/46/3 17/45/3 9/12/3
f 19/46/3 16/47/3 17/45/3
f 20/48/3 16/47/3 19/46/3
f 21/49/3 16/47/3 20/48/3
f 21/49/3 15/19/3 16/47/3
f 13/17/3 15/19/3 21/49/3
f 21/50/2 22/51/2 13/52/2
f 22/51/2 21/50/2 23/53/2
f 21/54/10 24/55/10 23/56/10
f 24/55/10 21/54/10 20/57/10
f 19/58/6 24/59/6 20/60/6
f 24/59/6 19/58/6 25/61/6
f 9/62/5 25/63/5 19/64/5
f 25/63/5 9/62/5 26/65/5
f 9/66/4 27/67/4 26/68/4
f 27/67/4 9/66/4 10/69/4
f 11/70/8 27/71/8 10/72/8
f 27/71/8 11/70/8 28/73/8
f 13/74/9 28/75/9 11/76/9
f 28/75/9 13/74/9 22/77/9
f 23/78/3 28/79/3 22/80/3
f 28/79/3 23/78/3 27/81/3
f 27/81/3 23/78/3 24/82/3
f 27/81/3 24/82/3 26/83/3
f 26/83/3 24/82/3 25/84/3
